# xmcd
#
# Track frame offsets: 
#        150
#        19579
#        40808
#        61836
#        84245
#        104916
#        120680
#        138697
#        165889
#        186441
#        222134
#        242900
#
# Disc length: 3548 seconds
#
# Revision: 1
# Processed by: cddbd v1.5.2PL0 Copyright (c) Steve Scherf et al.
# Submitted via: ExactAudioCopyFreeDBPlugin 1.0
#
DISCID=a30dda0c
DTITLE=Sara Bareilles - Live At The Fillmore
DYEAR=2008
DGENRE=
TTITLE0=Bottle It Up (Live)
TTITLE1=Vegas (Live)
TTITLE2=Morningside (Live)
TTITLE3=Love On The Rocks (Live)
TTITLE4=Between The Lines (Live)
TTITLE5=Fairytale (Live)
TTITLE6=August Moon (Live)
TTITLE7=City (Live)
TTITLE8=Love Song (Live)
TTITLE9=Many The Miles (Live)
TTITLE10=(Sittin' On) The Dock Of The Bay (Live)
TTITLE11=Gravity (Live)
EXTD=
EXTT0=
EXTT1=
EXTT2=
EXTT3=
EXTT4=
EXTT5=
EXTT6=
EXTT7=
EXTT8=
EXTT9=
EXTT10=
EXTT11=
PLAYORDER=
